<svg data-name="Layer 2" viewBox="0 0 250 250" xmlns="http://www.w3.org/2000/svg"><path d="M221.51 215.22c-14-29.67-23.13-71.84-26.64-98.93a4 4 0 0 0-5.54-3.16l-23 9.88-31.54-73.47c-.86-12.79-4.53-23-11.51-32a4 4 0 0 0-2.91-1.54c-5.07-.31-10.82 2.83-14 7.64-2.54 3.9-2.93 8.22-1.06 11.86a4 4 0 0 0 2.54 2c7.66 2 14 6.9 19.46 14.89L159 126.16l-21.62 9.28a4 4 0 0 0-.46-.87l-21.44-29.33a4 4 0 0 0-3.23-1.64H99.84V88.43a4 4 0 0 0-4-4H69.9a4 4 0 0 0-4 4v15.17H53.54a4 4 0 0 0-3.23 1.64l-21.43 29.33a4 4 0 0 0-.71 3.1l16.93 90.25a4 4 0 0 0 3.27 3.21 208.08 208.08 0 0 0 69 0 4 4 0 0 0 3.28-3.21l15.49-82.63c17.77 22.58 39.86 56.63 51.08 84.71a4 4 0 0 0 2.19 2.21 3.88 3.88 0 0 0 1.53.31 3.92 3.92 0 0 0 1.57-.33l27-11.56a4 4 0 0 0 2-5.39ZM112.17 30.5a5.25 5.25 0 0 1 .93-2.5 9.59 9.59 0 0 1 5.14-3.84 44.77 44.77 0 0 1 6.43 13.32 38.06 38.06 0 0 0-12.5-6.98ZM73.9 92.43h17.94v11.17H73.9Zm39.4 131.25a199.66 199.66 0 0 1-60.86 0L36.36 137.9l19.21-26.3h54.6l19.22 26.3Zm79.79-.46c-12.34-29.11-33.55-60.95-49.72-81.67l44.29-19c3.85 26.46 12.29 64 24.89 92.33Z" fill="#ddaa44" class="fill-000000"></path><path d="M106.05 128.34c-2 4.2-6.59 14.4-6.59 18.3a10.21 10.21 0 1 0 20.41 0c0-3.9-4.61-14.1-6.59-18.3a4 4 0 0 0-7.23 0Zm3.61 20.51a2.2 2.2 0 0 1-2.2-2.17 34.16 34.16 0 0 1 2.2-6.64 34.49 34.49 0 0 1 2.21 6.63 2.21 2.21 0 0 1-2.21 2.18ZM108.54 77.88a10.22 10.22 0 0 0 10.2-10.21c0-3.74-4.52-16.2-6.46-21.38a4 4 0 0 0-7.49 0c-1.94 5.18-6.46 17.64-6.46 21.38a10.22 10.22 0 0 0 10.21 10.21Zm0-18.15a50.38 50.38 0 0 1 2.2 8 2.21 2.21 0 0 1-4.41 0 50.27 50.27 0 0 1 2.21-8Z" fill="#ddaa44" class="fill-000000"></path></svg>