<svg xmlns="http://www.w3.org/2000/svg" viewBox="0 0 960 588"><defs><style>.a{fill:#fff;}</style></defs><path class="a" d="M0,588V0H960V588ZM515.2,248.7c-1.3,2.2-2.3,3.6-3.2,5.2-21.1,36.6-42.3,73.2-63.3,109.9-2.3,4-4.7,5.4-9.2,5.3-84.7-.2-169.3-.1-254-.2-3.6,0-5.6.9-7.3,4.3-4.7,9.6-10,18.8-14.6,28.4a8.6,8.6,0,0,0,0,6.7c4.5,9.1,9.6,17.9,14,27,1.9,3.9,4.1,5,8.4,5H577.9c6.8,0,13.6.1,20.5,0,8.6-.2,17.1-.7,26.7-1.1ZM375.7,296.8H270.5c-3.3,0-5.4.8-7.1,3.9-4.5,8.3-9.3,16.5-14.2,24.7-1.6,2.7-1.8,4.8-.1,7.7,5,8.1,9.8,16.3,14.3,24.6,1.7,3.1,3.7,4,7.1,4q82.2-.2,164.5,0c3.5,0,5.3-1.2,7-4.1q52.2-90.6,104.6-181.2c.8-1.3,1.3-2.8,2.1-4.3l-1.9-.4H282.3c-1.7,0-3.9,1.6-4.9,3.1-5.3,8.7-10.4,17.5-15.2,26.4a7.5,7.5,0,0,0,.2,6.2c4.7,8.6,9.9,17,14.5,25.6,1.7,3.1,3.8,3.9,7.1,3.9h89.1c-4.6,7.8-8.3,15-12.8,21.7-2.8,4.2-2.7,7.4,0,11.6C365.5,278.6,370.2,287.3,375.7,296.8ZM386,97.5H223.6c-3.7,0-5.7,1.1-7.4,4.3-4.5,8.3-9.2,16.6-14.2,24.7-1.8,2.9-1.5,4.9.1,7.6,5,8.3,9.8,16.6,14.4,25.1,1.6,2.9,3.4,3.8,6.7,3.8H628a37.7,37.7,0,0,0,4.4-.4c-.5-1.1-.7-1.8-1-2.3q-33.1-57.7-66.6-115.5a6.8,6.8,0,0,0-5-2.7q-82.5-.1-164.9,0a6.8,6.8,0,0,0-5,2.8c-5.4,8.8-10.6,17.7-15.5,26.8a7.1,7.1,0,0,0,0,5.7C377.8,83.7,381.6,89.9,386,97.5ZM565.3,316.8l.5,1.6q33.6,58.2,67.3,116.2c.7,1.3,3.6,2.3,5.1,1.9Q733,416,778.3,330c2.2-4.2,4-8.5,6.1-13.2ZM759,116.1,648.5,307.5h6.1c42.7,0,85.3-.1,128,.1,4.3,0,6-1.3,7.3-5.3,15.9-50.7,13.1-100.2-9.4-148.3C774.5,141.3,766.7,129.5,759,116.1ZM572.5,39.9,682.6,230.7l69.8-121.3C704.2,56.1,644.6,33.4,572.5,39.9ZM290.7,543.6V473.4H277.2v43.9c-9.9-13.5-18.6-27-27.6-40.5-1-1.5-2.7-3.3-4.3-3.4-4.2-.5-8.6-.2-13-.2v70.5h13.4V496.5c9.2,12.5,18,24.9,25.4,38.1,4.5,8,10.1,11,18.7,9.3Zm48.3,1.6c20.9,0,37.7-16.1,37.8-36.3S360.1,472,339.5,472s-37.6,16-37.7,36.4S318.2,545.1,339,545.2ZM96.2,473.7V544H125c18.2-.1,31.6-13.2,33.3-32.5s-10.1-35.4-27.6-37.5C119.5,472.6,107.9,473.7,96.2,473.7Zm644.7,38.4c1.2-.8,2.4-1.4,3.4-2.2,6.4-5,9.7-11.4,8.4-19.6s-6.1-14.8-14-15.8c-11.4-1.4-23-.3-34.6-.3v69.5h13.6V516.3c11.5-1.1,16,1.8,19.3,11.9,1.7,5.2,3.3,10.4,5,15.7h14.9C751.1,533.4,751.8,520.3,740.9,512.1ZM629.3,473.4c0,14.3-.7,28,.2,41.5,1.3,19.4,14.6,30.9,33.3,30.2,17.1-.7,29-14.1,29.2-32.9.1-11.7,0-23.3,0-35a22.1,22.1,0,0,0-.4-3.7H678.2v5.8c0,11.3.1,22.7,0,34-.1,9.3-4.5,15.6-11.9,17.7-12.5,3.5-23-4.4-23.2-17.9-.2-11.5,0-23-.1-34.5,0-1.7-.1-3.5-.2-5.2ZM779,484.3h32.6V473.6H765.5v70.2h46.1V531.9H779.1V512.5h32V501.7H779ZM565.4,486a37.9,37.9,0,0,0-43.1-11.7c-14.7,5.5-24.5,19.8-24.1,35.1a37.1,37.1,0,0,0,26.6,34.3c15,4.5,31.9-.7,40.3-12.5l-9.1-8.9c-13.6,12-26.8,13.1-37.1,2.7s-9.3-22.9-.8-32a23.5,23.5,0,0,1,15.6-8c9.2-.9,16.4,3,22,9.7Zm254.4,49.5c8.7,8.5,23.7,12.2,35,8.6,8.2-2.6,14-7.7,15.2-16.7s-2.7-16.1-11.5-20.7c-3.1-1.6-6.4-2.7-9.6-4.2s-6.8-2.8-9.8-4.8c-5.1-3.6-4.3-9.8,1.4-12.1a13.1,13.1,0,0,1,7.3-.8,92.1,92.1,0,0,1,11.2,3.9l8.5-8.7c-6.7-7.2-20.1-10.3-30.8-7-8.5,2.6-14.1,8-15.2,17.2s3,15.5,10.6,19.8c3.4,2,7.3,3.2,10.9,4.9s6.2,2.5,9,4.2c5.3,3.4,4.8,9.6-1,12.1-1.9.8-4.3,1.5-6.2,1-5.5-1.3-10.9-3.2-16.6-4.9ZM429.1,520.8c4.8,0,9.3.3,13.7-.1a23.8,23.8,0,0,0,22.1-21.9c.9-11.6-6.7-23.1-18.1-24.6s-20.8-.3-31.4-.3v69.6h13.7ZM154.3,473.2c8.1,12.4,15.4,23.8,23.1,35,3.2,4.6,4.8,9.2,4.4,14.8s-.1,13.8-.1,20.8h13.7c0-8.3-.2-16.4.1-24.5a15.6,15.6,0,0,1,2.5-7.8c7.6-11.5,15.6-22.8,23.4-34.1.8-1.2,1.4-2.4,2.4-4.2-3.5,0-6.4.3-9.1-.1-5.1-.7-8.2,1.2-10.8,5.7-4.7,8.1-10.1,15.9-15.4,24.2-5.7-9.2-10.9-17.9-16.4-26.4-.9-1.5-2.8-3.1-4.3-3.2C163.8,472.9,159.7,473.2,154.3,473.2Zm447.3,70.6V485.5h19.1V473.6H568.3v11.9h19.5v58.3ZM474.2,473.4v70.3h13V473.4Z"/><path d="M515.2,248.7,625.1,439c-9.6.4-18.1.9-26.7,1.1-6.8.2-13.6,0-20.5,0H186c-4.2,0-6.5-1.2-8.4-5-4.4-9.1-9.5-17.9-14-27a8.6,8.6,0,0,1,0-6.7c4.7-9.6,10-18.8,14.6-28.4,1.7-3.4,3.7-4.3,7.3-4.3,84.7.1,169.3,0,254,.2,4.6,0,7-1.4,9.2-5.3q31.5-55.1,63.3-109.9Z"/><path d="M375.7,296.8c-5.5-9.5-10.2-18.3-15.5-26.7-2.7-4.2-2.8-7.4,0-11.6,4.5-6.7,8.3-13.9,12.8-21.7h-6.1c-27.7,0-55.3-.1-83,.1-3.3,0-5.4-.8-7.1-3.9-4.7-8.6-9.9-17-14.5-25.6a7.9,7.9,0,0,1-.2-6.2c4.8-8.9,9.9-17.7,15.2-26.4.9-1.5,3.2-3.1,4.9-3.1H546.7a10.8,10.8,0,0,1,1.9.4,34.5,34.5,0,0,1-2.1,4.3Q494.3,266.9,442,357.5c-1.7,2.9-3.6,4.1-7,4.1q-82.2-.2-164.5,0c-3.4,0-5.4-.8-7.1-4-4.5-8.3-9.3-16.5-14.3-24.6-1.8-2.8-1.6-4.9.1-7.7,4.9-8.1,9.7-16.3,14.2-24.7,1.7-3.1,3.8-3.9,7.1-3.9H375.7Z"/><path d="M386,97.5c-4.4-7.6-8.2-13.8-11.5-20.2a7.1,7.1,0,0,1,0-5.7c4.9-9.1,10.1-18,15.5-26.8a7.1,7.1,0,0,1,5-2.8q82.5-.2,164.9,0a6.8,6.8,0,0,1,5,2.7q33.5,57.6,66.6,115.5l1,2.3c-1.7.1-3.1.4-4.4.4H223.3c-3.3,0-5.1-.9-6.7-3.8-4.6-8.5-9.5-16.8-14.4-25.1-1.6-2.7-1.9-4.7-.1-7.6,5-8.1,9.7-16.3,14.2-24.7,1.7-3.2,3.7-4.3,7.4-4.3H386Z"/><path d="M565.3,316.8H784.5c-2.2,4.7-4,9.1-6.1,13.2q-45.1,86-140.1,106.5c-1.5.3-4.4-.7-5.1-1.9-22.6-38.7-44.9-77.4-67.3-116.2C565.6,318.1,565.6,317.7,565.3,316.8Z"/><path d="M759,116.1c7.7,13.4,15.5,25.2,21.5,37.9,22.5,48.1,25.3,97.6,9.4,148.3-1.2,4-3,5.3-7.3,5.3-42.7-.2-85.3-.1-128-.1h-6.1Z"/><path d="M572.5,39.9c72.1-6.5,131.7,16.2,179.9,69.5L682.6,230.7C645.8,167.1,609.5,104,572.5,39.9Z"/><path d="M290.7,543.6l-.9.3c-8.6,1.7-14.2-1.3-18.7-9.3-7.4-13.2-16.1-25.5-25.4-38.1v47.2H232.3V473.2c4.4,0,8.8-.3,13,.2,1.6.2,3.3,1.9,4.3,3.4,8.9,13.5,17.7,27,27.6,40.5V473.4h13.5Z"/><path d="M339,545.2c-20.8,0-37.3-16.3-37.2-36.8S318.4,472,339.5,472s37.4,16.6,37.3,36.9S359.9,545.2,339,545.2Zm.5-13A23.6,23.6,0,0,0,363,508.3c-.1-13-10.9-23.3-24.2-23.2a23.6,23.6,0,1,0,.7,47.1Z"/><path d="M96.2,473.7c11.7,0,23.3-1.1,34.5.3,17.5,2.1,29.2,19,27.6,37.5S143.2,543.9,125,544c-9.5.1-19,0-28.8,0Zm13.7,10.5V532c11.7.5,23.5,2.2,30.8-9.6,5.6-9,5.9-18.7.3-27.9C133.8,482.5,121.9,483.8,109.9,484.2Z"/><path d="M740.9,512.1c10.8,8.2,10.2,21.3,16.1,31.7H742.1c-1.7-5.3-3.3-10.5-5-15.7-3.3-10.1-7.9-13-19.3-11.9v27.4H704.2V474.1c11.6,0,23.2-1,34.6.3,7.9.9,12.7,7.7,14,15.8s-2,14.6-8.4,19.6A30.3,30.3,0,0,1,740.9,512.1Zm-23.1-29.2v22.3c3.9,0,7.5.1,11.1,0,5.6-.3,9.6-4,10.2-9s-2.3-10.8-7.9-12.1S722.7,483.2,717.8,482.9Z"/><path d="M629.3,473.4h13.5c.1,1.7.2,3.4.2,5.2,0,11.5-.2,23,.1,34.5.2,13.5,10.8,21.5,23.2,17.9,7.4-2.1,11.7-8.4,11.9-17.7.1-11.3,0-22.7,0-34v-5.8h13.4c.1,1.2.4,2.4.4,3.7,0,11.7.1,23.3,0,35-.1,18.8-12.1,32.2-29.2,32.9-18.7.8-32.1-10.8-33.3-30.2C628.6,501.4,629.3,487.7,629.3,473.4Z"/><path d="M779,484.3v17.2h32.1v10.8h-32v19.4h32.5v11.9H765.5V473.4h46.1v10.7C801,484.3,790.3,484.3,779,484.3Z"/><path d="M565.4,486l-9.7,8.7c-5.6-6.7-12.8-10.5-22-9.7a23.5,23.5,0,0,0-15.6,8,23,23,0,0,0,.8,32c10.3,10.4,23.5,9.3,37.1-2.7l9.1,8.9c-8.4,11.7-25.4,16.9-40.3,12.5a37.2,37.2,0,0,1-26.6-34.3c-.4-15.3,9.4-29.6,24.1-35.1A37.9,37.9,0,0,1,565.4,486Z"/><path d="M819.8,535.5l8.5-8.3c5.8,1.8,11.1,3.6,16.6,4.9a11.3,11.3,0,0,0,6.2-1c5.8-2.5,6.3-8.7,1-12.1-2.8-1.8-6-2.9-9-4.2s-7.4-2.9-10.9-4.9c-7.6-4.3-11.6-10.8-10.6-19.8s6.7-14.5,15.2-17.2c10.7-3.3,24.1-.2,30.8,7l-8.5,8.7c-3.6-1.3-7.3-3-11.2-3.9a13.1,13.1,0,0,0-7.3.8c-5.8,2.3-6.5,8.6-1.4,12.1,2.9,2.1,6.5,3.3,9.8,4.8s6.5,2.6,9.6,4.2c8.8,4.6,12.7,11.5,11.5,20.7s-7,14-15.2,16.7C843.5,547.7,828.5,544.1,819.8,535.5Z"/><path d="M429.1,520.8v22.8H415.4V474c10.7,0,21.2-1,31.4.3s19,13,18.1,24.6a23.9,23.9,0,0,1-22.1,21.9C438.4,521.1,433.9,520.8,429.1,520.8Zm.2-10.9c7.7.4,15.4,1.9,20.1-6.3,2.8-4.9,2.7-9.9-.6-14.5-5.1-7.1-12.4-5.3-19.4-5C429.3,492.9,429.3,501.3,429.3,509.9Z"/><path d="M154.3,473.2c5.3,0,9.5-.3,13.5.2,1.6.2,3.4,1.8,4.3,3.2,5.5,8.5,10.7,17.2,16.4,26.4,5.3-8.3,10.7-16,15.4-24.2,2.6-4.5,5.7-6.4,10.8-5.7,2.7.4,5.6.1,9.1.1a44.4,44.4,0,0,1-2.4,4.2c-7.8,11.4-15.8,22.7-23.4,34.1a15.3,15.3,0,0,0-2.5,7.8c-.3,8.1-.1,16.2-.1,24.5H181.7c0-7-.3-13.9.1-20.8a23.1,23.1,0,0,0-4.4-14.8C169.8,497,162.5,485.5,154.3,473.2Z"/><path d="M601.6,543.8H587.9V485.5H568.4V473.6h52.4v11.9H601.7C601.6,505.2,601.6,524.4,601.6,543.8Z"/><path d="M474.2,473.4h13v70.3h-13Z"/><path class="a" d="M339.5,532.2a23.6,23.6,0,1,1-.7-47.2c13.3-.1,24.1,10.2,24.2,23.2A23.7,23.7,0,0,1,339.5,532.2Z"/><path class="a" d="M109.9,484.2c12-.4,23.9-1.7,31.1,10.3,5.5,9.2,5.3,18.9-.3,27.9-7.3,11.7-19.1,10-30.8,9.6Z"/><path class="a" d="M717.8,482.9c4.9.4,9.2.2,13.3,1.1,5.7,1.2,8.6,6.3,7.9,12.1s-4.7,8.7-10.2,9c-3.6.2-7.2,0-11.1,0C717.8,497.7,717.8,490.8,717.8,482.9Z"/><path class="a" d="M429.3,509.9V484.1c7.1-.3,14.4-2.1,19.4,5,3.3,4.6,3.4,9.6.6,14.5C444.7,511.8,436.9,510.3,429.3,509.9Z"/></svg>